<svg width="328" height="61" viewBox="0 0 328 61" fill="none" xmlns="http://www.w3.org/2000/svg">
<path d="M15.1678 42.6147C17.9717 43.8736 20.4322 44.5031 22.4922 44.5031C23.5222 44.5031 24.1517 44.4459 24.4378 44.2742C25.7539 43.9309 26.6694 43.187 27.2417 42.0425L27.2989 41.9281C27.585 41.4131 27.6994 40.7836 27.6994 39.9825C27.6994 39.582 27.585 39.1242 27.3561 38.552L27.2417 38.3231C26.4978 36.7781 24.8383 35.7481 21.8055 34.7753L21.2333 34.6036L21.0617 34.5464C16.4267 33.1731 13.4511 30.9986 12.0205 27.9659C11.4483 26.8214 11.1622 25.5625 11.1622 24.1892C11.1622 22.7586 11.4483 21.3853 12.0205 19.9547L12.135 19.7259C13.4511 17.0936 15.5683 15.377 18.3722 14.5186C20.375 14.2325 21.5194 14.0609 21.8055 14.0609C25.6967 14.0609 30.2172 15.6631 35.31 18.8103L36.3972 17.0364C30.8467 13.6603 26.04 12.0009 21.8628 12.0009C20.2033 12.0009 18.83 12.1725 17.8572 12.5731C14.4811 13.4886 11.9633 15.5486 10.3039 18.8103L10.1322 19.2109C9.44554 20.8703 9.10221 22.5297 9.10221 24.1892C9.10221 25.9631 9.44554 27.5081 10.1322 28.8814C11.9061 32.4292 15.3394 34.947 20.4894 36.492L21.1761 36.7209C23.5222 37.4647 24.8955 38.2659 25.4105 39.1814L25.4678 39.2959C25.5822 39.4675 25.6394 39.6964 25.6394 39.9825C25.6394 40.4975 25.5822 40.8409 25.4105 41.127C25.01 42.0425 24.0372 42.5003 22.4922 42.5003C20.0317 42.5003 16.4839 41.2414 13.7372 39.4675L12.8789 38.9525L7.84332 47.0781L8.70166 47.5931C12.7644 50.3397 18.1433 52.0564 22.4922 52.0564C23.9228 52.0564 25.2389 51.8847 26.4405 51.5414C29.8167 50.5686 32.3344 48.4514 33.9939 45.247L34.2228 44.8464C34.9094 43.0725 35.2528 41.4131 35.2528 39.8681C35.2528 38.4947 34.795 36.7781 33.9367 34.6609C32.3917 31.5709 29.13 29.2247 24.0372 27.6225L23.2361 27.3936C21.6339 26.8786 20.5467 26.3636 20.0317 25.9631C19.345 25.3909 18.9444 24.9903 18.7728 24.7614L18.6583 24.132C18.6583 23.5597 18.7728 23.0447 19.0589 22.6442C19.5167 21.7859 19.9744 21.557 21.8055 21.557C24.2661 21.557 27.8139 22.8159 30.5605 24.5897L31.4189 25.1047L34.5089 20.1836L33.5933 19.6686C30.1028 17.3797 25.3533 15.7775 21.8628 15.7775C20.3178 15.7775 19.345 15.892 18.83 16.1781C16.4839 16.8647 14.71 18.3525 13.5655 20.5842C13.0505 21.557 12.8217 22.7014 12.8217 24.132C12.8217 25.2192 13.0505 26.2492 13.5083 27.222C14.71 29.797 17.3994 31.6853 21.5767 32.9442L22.3205 33.1731L23.8655 33.7453C24.7239 34.0886 25.6394 34.5464 26.6694 35.1186C28.5005 36.2059 29.4161 37.7509 29.4161 39.8109C29.4161 40.9553 29.13 42.0425 28.615 43.0153C27.4133 45.1325 25.3533 46.2197 22.4922 46.2197C20.5467 46.2197 17.8 45.4759 14.2522 44.0453L13.2794 45.7047L13.2222 45.8192C16.4839 47.4786 19.5739 48.2797 22.5494 48.2797C24.2089 48.2797 25.7539 47.9364 27.1272 47.2497C29.8167 45.9336 31.4761 43.187 31.4761 39.7536C31.4761 34.3175 27.2989 32.7153 22.8928 31.1703L22.1489 30.9414C18.5439 29.8542 16.3122 28.3664 15.3967 26.3636C15.0533 25.677 14.8817 24.9331 14.8817 24.0747C14.8817 22.9875 15.0533 22.1292 15.4539 21.3853C16.3694 19.7259 17.6855 18.6386 19.4022 18.1236L21.6911 17.8375C24.7239 17.8375 28.0428 18.8675 31.6478 20.8703L30.7322 22.3009C27.0128 20.4697 24.0372 19.5542 21.8628 19.5542C20.7755 19.5542 20.1461 19.6114 19.86 19.7831C18.6011 20.1264 17.6855 20.8703 17.0561 22.072L16.9989 22.1864C16.7128 22.7014 16.5983 23.3881 16.5983 24.2464C16.5983 24.8759 16.7128 25.3336 16.8844 25.6197C17.6283 27.1647 19.5739 28.4236 22.6639 29.3392L23.4078 29.5681L24.8383 30.0259C25.01 30.0831 25.9255 30.4836 27.585 31.2847C29.8167 32.5436 31.4189 34.1459 32.3344 36.0342C32.9067 37.1786 33.1928 38.4375 33.1928 39.8109C33.1928 41.4703 32.9067 42.9009 32.2772 44.1025L32.1628 44.3314C30.8467 46.9636 28.7294 48.6803 25.9255 49.5386C23.9228 49.8247 22.7783 49.9964 22.4922 49.9964C19.5739 49.9964 15.7972 48.9092 12.3067 47.2497L10.7044 46.3914L13.5655 41.7564L15.1678 42.6147ZM52.5339 19.4397H66.21V14.0036H41.8905V15.7775H64.2644V17.8375H39.8305V11.9436H68.27V21.4997H54.5939V48.2797H52.5339V19.4397ZM48.7 21.4997H39.8305V19.4397H50.76V49.9392H56.4822V23.2736H58.5422V52.0564H48.7V21.4997ZM77.8261 48.5086H80.3439L82.3467 43.702L97.2817 43.7592L100.944 52.0564L111.473 51.9992L93.4478 12.0009H89.7855L71.875 51.9992H83.0333L84.9789 47.4214H96.3661L95.5078 45.4759H83.72L81.8889 49.9964H75.0794L90.93 13.9464H92.3033L108.211 49.9964H102.146L98.4833 41.8136H80.7444L77.8261 48.5086ZM84.6355 38.4375L91.6167 21.7859L103.347 48.4514H105.693L91.6167 17.0936L81.3167 40.2114H97.9111L91.6167 26.3064L87.2678 36.7781H89.4994L91.6167 31.5709L94.8783 38.4375H84.6355ZM143.975 35.7481L120.571 12.0009H117.71L146.035 40.7836V16.0064H143.975V35.7481ZM142.087 31.1703V14.0036H147.923V49.9964H146.951L146.722 49.7675L120.514 23.2164V52.0564H126.522V35.1759L124.405 33.0014V49.9964H122.574V28.252L146.321 52.0564H149.983V12.0009H140.027V28.9386L142.087 31.1703ZM118.626 52.0564V18.5814L146.035 46.3914V43.3586L116.623 13.6603V52.0564H118.626ZM157.422 12.0009H163.431V48.2225H161.371V14.0609H159.482V49.9964H165.262V12.0009H167.322V52.0564H157.422V12.0009ZM179.224 42.6147C182.028 43.8736 184.488 44.5031 186.548 44.5031C187.578 44.5031 188.208 44.4459 188.494 44.2742C189.81 43.9309 190.726 43.187 191.298 42.0425L191.355 41.9281C191.641 41.4131 191.756 40.7836 191.756 39.9825C191.756 39.582 191.641 39.1242 191.412 38.552L191.298 38.3231C190.554 36.7781 188.894 35.7481 185.862 34.7753L185.289 34.6036L185.118 34.5464C180.483 33.1731 177.507 30.9986 176.077 27.9659C175.504 26.8214 175.218 25.5625 175.218 24.1892C175.218 22.7586 175.504 21.3853 176.077 19.9547L176.191 19.7259C177.507 17.0936 179.624 15.377 182.428 14.5186C184.431 14.2325 185.576 14.0609 185.862 14.0609C189.753 14.0609 194.273 15.6631 199.366 18.8103L200.453 17.0364C194.903 13.6603 190.096 12.0009 185.919 12.0009C184.259 12.0009 182.886 12.1725 181.913 12.5731C178.537 13.4886 176.019 15.5486 174.36 18.8103L174.188 19.2109C173.502 20.8703 173.158 22.5297 173.158 24.1892C173.158 25.9631 173.502 27.5081 174.188 28.8814C175.962 32.4292 179.396 34.947 184.546 36.492L185.232 36.7209C187.578 37.4647 188.952 38.2659 189.467 39.1814L189.524 39.2959C189.638 39.4675 189.696 39.6964 189.696 39.9825C189.696 40.4975 189.638 40.8409 189.467 41.127C189.066 42.0425 188.093 42.5003 186.548 42.5003C184.088 42.5003 180.54 41.2414 177.793 39.4675L176.935 38.9525L171.899 47.0781L172.758 47.5931C176.821 50.3397 182.199 52.0564 186.548 52.0564C187.979 52.0564 189.295 51.8847 190.497 51.5414C193.873 50.5686 196.391 48.4514 198.05 45.247L198.279 44.8464C198.966 43.0725 199.309 41.4131 199.309 39.8681C199.309 38.4947 198.851 36.7781 197.993 34.6609C196.448 31.5709 193.186 29.2247 188.093 27.6225L187.292 27.3936C185.69 26.8786 184.603 26.3636 184.088 25.9631C183.401 25.3909 183.001 24.9903 182.829 24.7614L182.714 24.132C182.714 23.5597 182.829 23.0447 183.115 22.6442C183.573 21.7859 184.031 21.557 185.862 21.557C188.322 21.557 191.87 22.8159 194.617 24.5897L195.475 25.1047L198.565 20.1836L197.649 19.6686C194.159 17.3797 189.409 15.7775 185.919 15.7775C184.374 15.7775 183.401 15.892 182.886 16.1781C180.54 16.8647 178.766 18.3525 177.622 20.5842C177.107 21.557 176.878 22.7014 176.878 24.132C176.878 25.2192 177.107 26.2492 177.564 27.222C178.766 29.797 181.456 31.6853 185.633 32.9442L186.377 33.1731L187.922 33.7453C188.78 34.0886 189.696 34.5464 190.726 35.1186C192.557 36.2059 193.472 37.7509 193.472 39.8109C193.472 40.9553 193.186 42.0425 192.671 43.0153C191.469 45.1325 189.409 46.2197 186.548 46.2197C184.603 46.2197 181.856 45.4759 178.308 44.0453L177.336 45.7047L177.278 45.8192C180.54 47.4786 183.63 48.2797 186.606 48.2797C188.265 48.2797 189.81 47.9364 191.183 47.2497C193.873 45.9336 195.532 43.187 195.532 39.7536C195.532 34.3175 191.355 32.7153 186.949 31.1703L186.205 30.9414C182.6 29.8542 180.368 28.3664 179.453 26.3636C179.109 25.677 178.938 24.9331 178.938 24.0747C178.938 22.9875 179.109 22.1292 179.51 21.3853C180.426 19.7259 181.742 18.6386 183.458 18.1236L185.747 17.8375C188.78 17.8375 192.099 18.8675 195.704 20.8703L194.788 22.3009C191.069 20.4697 188.093 19.5542 185.919 19.5542C184.832 19.5542 184.202 19.6114 183.916 19.7831C182.657 20.1264 181.742 20.8703 181.112 22.072L181.055 22.1864C180.769 22.7014 180.654 23.3881 180.654 24.2464C180.654 24.8759 180.769 25.3336 180.941 25.6197C181.684 27.1647 183.63 28.4236 186.72 29.3392L187.464 29.5681L188.894 30.0259C189.066 30.0831 189.982 30.4836 191.641 31.2847C193.873 32.5436 195.475 34.1459 196.391 36.0342C196.963 37.1786 197.249 38.4375 197.249 39.8109C197.249 41.4703 196.963 42.9009 196.333 44.1025L196.219 44.3314C194.903 46.9636 192.786 48.6803 189.982 49.5386C187.979 49.8247 186.834 49.9964 186.548 49.9964C183.63 49.9964 179.853 48.9092 176.363 47.2497L174.761 46.3914L177.622 41.7564L179.224 42.6147ZM202.742 11.9436H208.636V48.2797H206.519V14.0036H204.802V49.9964H223.628V44.5031H214.301V42.4431H225.688V52.0564H202.742V11.9436ZM210.524 11.9436H212.584V46.1625H221.797V48.2797H210.524V11.9436ZM235.073 48.5086H237.591L239.593 43.702L254.528 43.7592L258.191 52.0564L268.719 51.9992L250.694 12.0009H247.032L229.122 51.9992H240.28L242.226 47.4214H253.613L252.754 45.4759H240.967L239.136 49.9964H232.326L248.177 13.9464H249.55L265.458 49.9964H259.392L255.73 41.8136H237.991L235.073 48.5086ZM241.882 38.4375L248.863 21.7859L260.594 48.4514H262.94L248.863 17.0936L238.563 40.2114H255.158L248.863 26.3064L244.514 36.7781H246.746L248.863 31.5709L252.125 38.4375H241.882ZM275.529 14.1181H281.995L291.952 34.8325L293.153 32.372L283.311 12.0009H272.153L291.437 52.0564H292.409L310.778 14.1181H312.781L294.355 52.0564H296.701L316.157 12.0009H309.462L291.952 48.0509L275.529 14.1181ZM292.009 44.1025L307.516 12.0009H305.113L292.009 39.2386L280.736 15.9492H278.39L292.009 44.1025Z" fill="url(#paint0_linear_1_8)"/>
<defs>
<linearGradient id="paint0_linear_1_8" x1="7.84332" y1="11.9436" x2="316.157" y2="11.9436" gradientUnits="userSpaceOnUse">
<stop stop-color="#00DDFF"/>
<stop offset="1" stop-color="#FF00D4"/>
</linearGradient>
</defs>
</svg>
