<?xml version="1.0" encoding="UTF-8"?>
<!DOCTYPE svg PUBLIC "-//W3C//DTD SVG 1.1//EN" "http://www.w3.org/Graphics/SVG/1.1/DTD/svg11.dtd">
<svg xmlns="http://www.w3.org/2000/svg" version="1.1" width="50px" height="50px" style="shape-rendering:geometricPrecision; text-rendering:geometricPrecision; image-rendering:optimizeQuality; fill-rule:evenodd; clip-rule:evenodd" xmlns:xlink="http://www.w3.org/1999/xlink">
<g><path style="opacity:0.896" fill="#000000" d="M 16.5,2.5 C 22.8333,2.5 29.1667,2.5 35.5,2.5C 35.3118,4.10326 35.8118,5.43659 37,6.5C 40.2642,3.69644 42.7642,4.3631 44.5,8.5C 41.3698,11.7009 42.0365,13.3676 46.5,13.5C 46.5,15.5 46.5,17.5 46.5,19.5C 42.0365,19.6324 41.3698,21.2991 44.5,24.5C 39.3305,30.5123 36.6639,37.5123 36.5,45.5C 29.8665,46.4967 23.1998,46.83 16.5,46.5C 16.5,45.1667 16.5,43.8333 16.5,42.5C 13.3148,42.9804 10.4815,42.3137 8,40.5C 7.48304,37.0801 6.64971,33.7468 5.5,30.5C 3.70943,30.0381 2.70943,28.8715 2.5,27C 5.07465,20.54 7.57465,14.04 10,7.5C 11.9651,5.44965 14.1318,3.78299 16.5,2.5 Z M 39.5,9.5 C 38.3303,12.9734 39.6637,15.1401 43.5,16C 39.8246,17.5225 38.4912,20.0225 39.5,23.5C 36.529,22.4729 34.1957,23.4729 32.5,26.5C 30.8043,23.4729 28.471,22.4729 25.5,23.5C 26.5088,20.0225 25.1754,17.5225 21.5,16C 25.3363,15.1401 26.6697,12.9734 25.5,9.5C 28.471,10.5271 30.8043,9.52714 32.5,6.5C 34.1957,9.52714 36.529,10.5271 39.5,9.5 Z M 30.5,14.5 C 31.8333,14.5 33.1667,14.5 34.5,14.5C 34.5,15.8333 34.5,17.1667 34.5,18.5C 33.1667,18.5 31.8333,18.5 30.5,18.5C 30.5,17.1667 30.5,15.8333 30.5,14.5 Z"/></g>
<g><path style="opacity:0.699" fill="#000000" d="M 29.5,11.5 C 37.4863,10.998 39.4863,14.1647 35.5,21C 27.424,21.8047 25.424,18.638 29.5,11.5 Z M 30.5,14.5 C 30.5,15.8333 30.5,17.1667 30.5,18.5C 31.8333,18.5 33.1667,18.5 34.5,18.5C 34.5,17.1667 34.5,15.8333 34.5,14.5C 33.1667,14.5 31.8333,14.5 30.5,14.5 Z"/></g>
</svg>
